<svg width="12" height="12" viewBox="0 0 12 12" fill="none" xmlns="http://www.w3.org/2000/svg">
<g clip-path="url(#clip0)">
<path d="M6.22709 0.808838C3.19902 0.808838 0.735352 3.27238 0.735352 6.30058C0.735352 9.32878 3.19902 11.7923 6.22709 11.7923C9.2553 11.7923 11.7188 9.32878 11.7188 6.30058C11.7188 3.27238 9.25517 0.808838 6.22709 0.808838ZM6.22709 10.9906C3.64104 10.9906 1.53706 8.88663 1.53706 6.30058C1.53706 3.71453 3.64104 1.61055 6.22709 1.61055C8.81315 1.61055 10.9171 3.71451 10.9171 6.30045C10.9171 8.88663 8.81315 10.9906 6.22709 10.9906Z" fill="black"/>
<path d="M8.09783 6.30063H6.36079V3.89548C6.36079 3.67408 6.18134 3.49463 5.95994 3.49463C5.73853 3.49463 5.55908 3.67408 5.55908 3.89548V6.70149C5.55908 6.92289 5.73853 7.10234 5.95994 7.10234H8.09783C8.31924 7.10234 8.49869 6.92289 8.49869 6.70149C8.49869 6.48008 8.31924 6.30063 8.09783 6.30063Z" fill="black"/>
</g>
<defs>
<clipPath id="clip0">
<rect width="10.9835" height="10.9835" fill="white" transform="translate(0.735352 0.808838)"/>
</clipPath>
</defs>
</svg>
