<svg width="10" height="10" viewBox="0 0 10 10" fill="none" xmlns="http://www.w3.org/2000/svg">
<path d="M8.52148 6.116C8.01405 5.60859 7.41008 5.23296 6.75111 5.00556C7.45689 4.51946 7.92057 3.70593 7.92057 2.78603C7.92057 1.30091 6.71231 0.0926514 5.22718 0.0926514C3.74206 0.0926514 2.5338 1.30091 2.5338 2.78603C2.5338 3.70593 2.99748 4.51946 3.70328 5.00556C3.04431 5.23296 2.44033 5.60859 1.9329 6.116C1.05297 6.99596 0.568359 8.16589 0.568359 9.4103H1.2963C1.2963 7.2428 3.05968 5.47942 5.22718 5.47942C7.39469 5.47942 9.15807 7.2428 9.15807 9.4103H9.88601C9.88601 8.16589 9.4014 6.99596 8.52148 6.116ZM5.22718 4.75148C4.14344 4.75148 3.26174 3.86979 3.26174 2.78603C3.26174 1.70228 4.14344 0.820593 5.22718 0.820593C6.31093 0.820593 7.19263 1.70228 7.19263 2.78603C7.19263 3.86979 6.31093 4.75148 5.22718 4.75148Z" fill="black"/>
</svg>
