<svg width="84" height="24" viewBox="0 0 84 24" fill="none" xmlns="http://www.w3.org/2000/svg">
<circle cx="80.8533" cy="3.30177" r="2.58082" fill="#58A85C"/>
<circle cx="72.7918" cy="3.30177" r="2.58082" fill="#DD4E40"/>
<circle cx="64.7302" cy="3.30177" r="2.58082" fill="#F5BF43"/>
<circle cx="56.6687" cy="3.30177" r="2.58082" fill="#FAF69D"/>
<circle cx="48.6072" cy="3.30177" r="2.58082" fill="#F5BF43"/>
<circle cx="40.5457" cy="3.30177" r="2.58082" fill="black"/>
<path d="M0.56543 19.4418C2.09543 22.1118 4.85543 23.8218 8.21543 23.8218C12.1754 23.8218 15.1454 21.5118 15.1454 17.8818C15.1454 15.2118 13.5854 13.5618 10.2554 12.0918L8.00543 11.1018C6.32543 10.3518 5.69543 9.87176 5.69543 8.82176C5.69543 7.59176 6.74543 6.90176 8.15543 6.90176C9.65543 6.90176 10.9154 7.65176 11.9354 9.18176L14.6954 7.05176C13.4654 4.77176 11.1854 3.30176 8.15543 3.30176C4.40543 3.30176 1.58543 5.52176 1.58543 8.91176C1.58543 11.5518 3.35543 13.2618 6.38543 14.6118L8.51543 15.5718C10.4054 16.4418 11.0354 16.8618 11.0354 18.0318C11.0354 19.3818 9.98543 20.2218 8.21543 20.2218C6.05543 20.2218 4.64543 19.1118 3.35543 17.3418L0.56543 19.4418Z" fill="#6775EE"/>
<path d="M36.1332 23.4618L27.5532 12.9918L35.1432 3.66176H30.3132L22.7532 12.8418V3.66176H18.7032V23.4618H22.7532V13.1418L31.2432 23.4618H36.1332Z" fill="#6775EE"/>
<path d="M38.5309 23.4618H42.5809V8.61176H38.5309V23.4618Z" fill="#6775EE"/>
<path d="M46.5875 23.4618H50.6375V8.61176H46.5875V23.4618Z" fill="#6775EE"/>
<path d="M54.6442 23.4618H58.6942V8.61176H54.6442V23.4618Z" fill="#6775EE"/>
<path d="M62.7008 23.4618H66.7508V8.61176H62.7008V23.4618Z" fill="#6775EE"/>
<path d="M70.7575 23.4618H74.8075V8.61176H70.7575V23.4618Z" fill="#6775EE"/>
<path d="M78.8141 23.4618H82.8641V8.61176H78.8141V16.0368V23.4618Z" fill="#6775EE"/>
</svg>
