<svg width="12" height="15" viewBox="0 0 12 15" fill="none" xmlns="http://www.w3.org/2000/svg">
<path d="M5.66837 0.88147C4.39309 0.88147 3.1569 1.33683 2.18753 2.16366C2.10125 2.23726 2.09095 2.36688 2.16455 2.45317C2.23816 2.53945 2.36778 2.54971 2.45406 2.47614C3.34918 1.71265 4.4907 1.2922 5.66837 1.2922C8.4012 1.2922 10.6245 3.5155 10.6245 6.24833C10.6245 7.30924 10.2939 8.32133 9.66844 9.17513C9.63059 9.22674 5.89444 14.3239 5.83513 14.4041C5.83469 14.4047 5.83425 14.4053 5.83379 14.4059C5.79441 14.4595 5.73412 14.4903 5.66837 14.4903C5.60257 14.4903 5.54192 14.4593 5.50252 14.406C5.46465 14.3544 1.72047 9.24627 1.66993 9.17669C1.66954 9.17614 1.66916 9.17559 1.66878 9.17507C1.04299 8.32152 0.712243 7.30943 0.712243 6.24833C0.712243 5.07066 1.13269 3.92913 1.89618 3.03402C1.96979 2.94774 1.95952 2.81811 1.87321 2.74451C1.7869 2.67088 1.6573 2.68117 1.5837 2.76748C0.756875 3.73686 0.301514 4.97304 0.301514 6.24833C0.301514 7.39738 0.659752 8.49343 1.33748 9.41795L1.33874 9.41702C1.35139 9.43701 5.17177 14.6496 5.17177 14.6496C5.28826 14.807 5.47388 14.901 5.66837 14.901C5.86336 14.901 6.04893 14.8068 6.16484 14.6491C6.17809 14.631 9.99973 9.41792 9.99973 9.41792C10.6772 8.49315 11.0352 7.39714 11.0352 6.24833C11.0352 3.28903 8.62768 0.88147 5.66837 0.88147Z" fill="black"/>
<path d="M5.66805 0.88147C6.94334 0.88147 8.17952 1.33683 9.1489 2.16366C9.23518 2.23726 9.24548 2.36688 9.17187 2.45317C9.09827 2.53945 8.96864 2.54971 8.88236 2.47614C7.98725 1.71265 6.84572 1.2922 5.66805 1.2922C2.93523 1.2922 0.711923 3.5155 0.711923 6.24833C0.711923 7.30924 1.04253 8.32133 1.66799 9.17513C1.70583 9.22674 5.44199 14.3239 5.5013 14.4041C5.50173 14.4047 5.50217 14.4053 5.50264 14.4059C5.54201 14.4595 5.60231 14.4903 5.66805 14.4903C5.73385 14.4903 5.7945 14.4593 5.83391 14.406C5.87177 14.3544 9.61595 9.24627 9.6665 9.17669C9.66688 9.17614 9.66727 9.17559 9.66765 9.17507C10.2934 8.32152 10.6242 7.30943 10.6242 6.24833C10.6242 5.07066 10.2037 3.92913 9.44024 3.03402C9.36664 2.94774 9.37691 2.81811 9.46322 2.74451C9.54952 2.67088 9.67912 2.68117 9.75273 2.76748C10.5796 3.73686 11.0349 4.97304 11.0349 6.24833C11.0349 7.39738 10.6767 8.49343 9.99894 9.41795L9.99768 9.41702C9.98503 9.43701 6.16465 14.6496 6.16465 14.6496C6.04817 14.807 5.86255 14.901 5.66805 14.901C5.47307 14.901 5.2875 14.8068 5.17159 14.6491C5.15834 14.631 1.3367 9.41792 1.3367 9.41792C0.659266 8.49315 0.301193 7.39714 0.301193 6.24833C0.301193 3.28903 2.70875 0.88147 5.66805 0.88147Z" fill="black"/>
</svg>
